<svg width="194" height="32" viewBox="0 0 194 32" fill="none" xmlns="http://www.w3.org/2000/svg">
<path d="M44.435 28.9C44.015 28.9 43.665 28.76 43.385 28.48C43.1283 28.2 43 27.8617 43 27.465V5.8C43 5.40333 43.1283 5.07667 43.385 4.82C43.665 4.54 44.0033 4.4 44.4 4.4H56.685C57.0817 4.4 57.42 4.52833 57.7 4.785C57.98 5.04167 58.12 5.36833 58.12 5.765C58.12 6.13833 57.98 6.45333 57.7 6.71C57.42 6.96667 57.0817 7.095 56.685 7.095H45.66L45.87 6.815V15.39L45.695 15.005H55.11C55.5067 15.005 55.845 15.145 56.125 15.425C56.405 15.6817 56.545 16.0083 56.545 16.405C56.545 16.755 56.405 17.07 56.125 17.35C55.845 17.6067 55.5067 17.735 55.11 17.735H45.625L45.87 17.42V27.465C45.87 27.8617 45.73 28.2 45.45 28.48C45.17 28.76 44.8317 28.9 44.435 28.9Z" fill="white"/>
<path d="M63.3924 28.9C62.9958 28.9 62.6574 28.76 62.3774 28.48C62.1208 28.2 61.9924 27.8617 61.9924 27.465V12.205C61.9924 11.8083 62.1208 11.4817 62.3774 11.225C62.6574 10.945 62.9958 10.805 63.3924 10.805C63.8124 10.805 64.1508 10.945 64.4074 11.225C64.6641 11.4817 64.7924 11.8083 64.7924 12.205V16.825L64.3724 16.09C64.5124 15.3667 64.7574 14.6667 65.1074 13.99C65.4808 13.29 65.9474 12.6717 66.5074 12.135C67.0674 11.575 67.7091 11.1433 68.4324 10.84C69.1558 10.5133 69.9491 10.35 70.8124 10.35C71.3258 10.35 71.7924 10.4783 72.2124 10.735C72.6558 10.9683 72.8774 11.3067 72.8774 11.75C72.8774 12.24 72.7491 12.6017 72.4924 12.835C72.2358 13.0683 71.9441 13.185 71.6174 13.185C71.3141 13.185 71.0224 13.1267 70.7424 13.01C70.4624 12.87 70.1124 12.8 69.6924 12.8C69.1091 12.8 68.5258 12.9633 67.9424 13.29C67.3824 13.5933 66.8574 14.0367 66.3674 14.62C65.9008 15.2033 65.5158 15.8683 65.2124 16.615C64.9324 17.3383 64.7924 18.12 64.7924 18.96V27.465C64.7924 27.8617 64.6524 28.2 64.3724 28.48C64.1158 28.76 63.7891 28.9 63.3924 28.9Z" fill="white"/>
<path d="M83.6191 29.25C81.7525 29.25 80.1191 28.8533 78.7191 28.06C77.3191 27.2667 76.2225 26.1817 75.4291 24.805C74.6591 23.405 74.2741 21.795 74.2741 19.975C74.2741 17.945 74.6708 16.2183 75.4641 14.795C76.2808 13.3483 77.3308 12.2517 78.6141 11.505C79.9208 10.735 81.2975 10.35 82.7441 10.35C83.8175 10.35 84.8558 10.5483 85.8591 10.945C86.8625 11.3417 87.7491 11.925 88.5191 12.695C89.2891 13.4417 89.9075 14.3517 90.3741 15.425C90.8408 16.475 91.0858 17.6533 91.1091 18.96C91.1091 19.3333 90.9691 19.6483 90.6891 19.905C90.4091 20.1617 90.0825 20.29 89.7091 20.29H75.8841L75.2541 17.875H88.7291L88.1691 18.365V17.595C88.0758 16.6383 87.7491 15.8217 87.1891 15.145C86.6525 14.445 85.9875 13.9083 85.1941 13.535C84.4241 13.1617 83.6075 12.975 82.7441 12.975C82.0441 12.975 81.3441 13.1033 80.6441 13.36C79.9675 13.5933 79.3491 13.99 78.7891 14.55C78.2525 15.0867 77.8091 15.7867 77.4591 16.65C77.1325 17.5133 76.9691 18.5517 76.9691 19.765C76.9691 21.1183 77.2375 22.3083 77.7741 23.335C78.3341 24.3617 79.1041 25.1783 80.0841 25.785C81.0641 26.3683 82.2075 26.66 83.5141 26.66C84.3308 26.66 85.0425 26.555 85.6491 26.345C86.2558 26.135 86.7808 25.8783 87.2241 25.575C87.6675 25.2483 88.0408 24.9217 88.3441 24.595C88.6475 24.385 88.9391 24.28 89.2191 24.28C89.5691 24.28 89.8491 24.3967 90.0591 24.63C90.2925 24.8633 90.4091 25.1433 90.4091 25.47C90.4091 25.8667 90.2225 26.2167 89.8491 26.52C89.1958 27.2433 88.3091 27.885 87.1891 28.445C86.0691 28.9817 84.8791 29.25 83.6191 29.25Z" fill="white"/>
<path d="M103.683 29.25C101.816 29.25 100.183 28.8533 98.7826 28.06C97.3826 27.2667 96.286 26.1817 95.4926 24.805C94.7226 23.405 94.3376 21.795 94.3376 19.975C94.3376 17.945 94.7343 16.2183 95.5276 14.795C96.3443 13.3483 97.3943 12.2517 98.6776 11.505C99.9843 10.735 101.361 10.35 102.808 10.35C103.881 10.35 104.919 10.5483 105.923 10.945C106.926 11.3417 107.813 11.925 108.583 12.695C109.353 13.4417 109.971 14.3517 110.438 15.425C110.904 16.475 111.149 17.6533 111.173 18.96C111.173 19.3333 111.033 19.6483 110.753 19.905C110.473 20.1617 110.146 20.29 109.773 20.29H95.9476L95.3176 17.875H108.793L108.233 18.365V17.595C108.139 16.6383 107.813 15.8217 107.253 15.145C106.716 14.445 106.051 13.9083 105.258 13.535C104.488 13.1617 103.671 12.975 102.808 12.975C102.108 12.975 101.408 13.1033 100.708 13.36C100.031 13.5933 99.4126 13.99 98.8526 14.55C98.316 15.0867 97.8726 15.7867 97.5226 16.65C97.196 17.5133 97.0326 18.5517 97.0326 19.765C97.0326 21.1183 97.3009 22.3083 97.8376 23.335C98.3976 24.3617 99.1676 25.1783 100.148 25.785C101.128 26.3683 102.271 26.66 103.578 26.66C104.394 26.66 105.106 26.555 105.713 26.345C106.319 26.135 106.844 25.8783 107.288 25.575C107.731 25.2483 108.104 24.9217 108.408 24.595C108.711 24.385 109.003 24.28 109.283 24.28C109.633 24.28 109.913 24.3967 110.123 24.63C110.356 24.8633 110.473 25.1433 110.473 25.47C110.473 25.8667 110.286 26.2167 109.913 26.52C109.259 27.2433 108.373 27.885 107.253 28.445C106.133 28.9817 104.943 29.25 103.683 29.25Z" fill="white"/>
<path d="M124.131 10.525C125.671 10.525 126.884 10.8633 127.771 11.54C128.681 12.1933 129.323 13.08 129.696 14.2C130.093 15.2967 130.291 16.5217 130.291 17.875V27.465C130.291 27.8617 130.151 28.2 129.871 28.48C129.614 28.76 129.288 28.9 128.891 28.9C128.494 28.9 128.156 28.76 127.876 28.48C127.619 28.2 127.491 27.8617 127.491 27.465V17.875C127.491 16.9883 127.363 16.195 127.106 15.495C126.849 14.7717 126.418 14.2 125.811 13.78C125.228 13.3367 124.423 13.115 123.396 13.115C122.439 13.115 121.564 13.3367 120.771 13.78C119.978 14.2 119.348 14.7717 118.881 15.495C118.414 16.195 118.181 16.9883 118.181 17.875V27.465C118.181 27.8617 118.041 28.2 117.761 28.48C117.504 28.76 117.178 28.9 116.781 28.9C116.384 28.9 116.046 28.76 115.766 28.48C115.509 28.2 115.381 27.8617 115.381 27.465V4.4C115.381 4.00333 115.509 3.67667 115.766 3.42C116.046 3.14 116.384 3 116.781 3C117.201 3 117.539 3.14 117.796 3.42C118.053 3.67667 118.181 4.00333 118.181 4.4V14.865L117.481 15.635C117.598 15.0283 117.854 14.4217 118.251 13.815C118.648 13.185 119.149 12.625 119.756 12.135C120.363 11.645 121.039 11.26 121.786 10.98C122.533 10.6767 123.314 10.525 124.131 10.525Z" fill="white"/>
<path d="M150.389 10.63C150.785 10.63 151.112 10.77 151.369 11.05C151.649 11.3067 151.789 11.6333 151.789 12.03V27.465C151.789 27.8617 151.649 28.2 151.369 28.48C151.112 28.76 150.785 28.9 150.389 28.9C149.969 28.9 149.63 28.76 149.374 28.48C149.117 28.2 148.989 27.8617 148.989 27.465V24.14L149.654 24.07C149.654 24.5833 149.479 25.1433 149.129 25.75C148.779 26.3567 148.3 26.9283 147.694 27.465C147.087 27.9783 146.364 28.41 145.524 28.76C144.707 29.0867 143.82 29.25 142.864 29.25C141.277 29.25 139.854 28.8417 138.594 28.025C137.334 27.185 136.33 26.0533 135.584 24.63C134.86 23.2067 134.499 21.585 134.499 19.765C134.499 17.9217 134.86 16.3 135.584 14.9C136.33 13.4767 137.334 12.3683 138.594 11.575C139.854 10.7583 141.254 10.35 142.794 10.35C143.797 10.35 144.73 10.5133 145.594 10.84C146.457 11.1667 147.204 11.61 147.834 12.17C148.487 12.73 148.989 13.3483 149.339 14.025C149.712 14.7017 149.899 15.3783 149.899 16.055L148.989 15.845V12.03C148.989 11.6333 149.117 11.3067 149.374 11.05C149.63 10.77 149.969 10.63 150.389 10.63ZM143.179 26.66C144.345 26.66 145.372 26.3567 146.259 25.75C147.169 25.1433 147.869 24.3267 148.359 23.3C148.872 22.25 149.129 21.0717 149.129 19.765C149.129 18.4817 148.872 17.3267 148.359 16.3C147.869 15.25 147.169 14.4333 146.259 13.85C145.372 13.2433 144.345 12.94 143.179 12.94C142.035 12.94 141.009 13.2317 140.099 13.815C139.212 14.3983 138.512 15.2033 137.999 16.23C137.485 17.2567 137.229 18.435 137.229 19.765C137.229 21.0717 137.474 22.25 137.964 23.3C138.477 24.3267 139.177 25.1433 140.064 25.75C140.974 26.3567 142.012 26.66 143.179 26.66Z" fill="white"/>
<path d="M165.973 10.35C167.559 10.35 168.808 10.6767 169.718 11.33C170.628 11.9833 171.269 12.8583 171.643 13.955C172.039 15.0517 172.238 16.2767 172.238 17.63V27.465C172.238 27.8617 172.098 28.2 171.818 28.48C171.561 28.76 171.234 28.9 170.838 28.9C170.441 28.9 170.103 28.76 169.823 28.48C169.566 28.2 169.438 27.8617 169.438 27.465V17.7C169.438 16.8133 169.298 16.02 169.018 15.32C168.761 14.5967 168.318 14.025 167.688 13.605C167.081 13.1617 166.241 12.94 165.168 12.94C164.188 12.94 163.289 13.1617 162.473 13.605C161.656 14.025 161.003 14.5967 160.513 15.32C160.023 16.02 159.778 16.8133 159.778 17.7V27.465C159.778 27.8617 159.638 28.2 159.358 28.48C159.101 28.76 158.774 28.9 158.378 28.9C157.981 28.9 157.643 28.76 157.363 28.48C157.106 28.2 156.978 27.8617 156.978 27.465V12.205C156.978 11.8083 157.106 11.4817 157.363 11.225C157.643 10.945 157.981 10.805 158.378 10.805C158.798 10.805 159.136 10.945 159.393 11.225C159.649 11.4817 159.778 11.8083 159.778 12.205V14.69L159.078 15.46C159.194 14.8533 159.463 14.2467 159.883 13.64C160.303 13.01 160.828 12.45 161.458 11.96C162.088 11.47 162.788 11.085 163.558 10.805C164.328 10.5017 165.133 10.35 165.973 10.35Z" fill="white"/>
<path d="M192.327 3C192.724 3 193.051 3.14 193.307 3.42C193.587 3.67667 193.727 4.00333 193.727 4.4V27.465C193.727 27.8617 193.587 28.2 193.307 28.48C193.051 28.76 192.724 28.9 192.327 28.9C191.907 28.9 191.569 28.76 191.312 28.48C191.056 28.2 190.927 27.8617 190.927 27.465V24.14L191.592 23.895C191.592 24.455 191.417 25.05 191.067 25.68C190.717 26.2867 190.239 26.8583 189.632 27.395C189.026 27.9317 188.302 28.375 187.462 28.725C186.646 29.075 185.759 29.25 184.802 29.25C183.239 29.25 181.816 28.8417 180.532 28.025C179.272 27.2083 178.269 26.0883 177.522 24.665C176.799 23.2417 176.437 21.62 176.437 19.8C176.437 17.9567 176.799 16.3233 177.522 14.9C178.269 13.4767 179.272 12.3683 180.532 11.575C181.792 10.7583 183.192 10.35 184.732 10.35C185.712 10.35 186.634 10.5133 187.497 10.84C188.361 11.1667 189.107 11.61 189.737 12.17C190.391 12.73 190.904 13.3483 191.277 14.025C191.651 14.7017 191.837 15.3783 191.837 16.055L190.927 15.845V4.4C190.927 4.00333 191.056 3.67667 191.312 3.42C191.569 3.14 191.907 3 192.327 3ZM185.117 26.66C186.284 26.66 187.311 26.3683 188.197 25.785C189.107 25.1783 189.807 24.3617 190.297 23.335C190.811 22.285 191.067 21.1067 191.067 19.8C191.067 18.47 190.811 17.2917 190.297 16.265C189.807 15.2383 189.107 14.4333 188.197 13.85C187.311 13.2433 186.284 12.94 185.117 12.94C183.974 12.94 182.947 13.2433 182.037 13.85C181.151 14.4333 180.451 15.2383 179.937 16.265C179.424 17.2917 179.167 18.47 179.167 19.8C179.167 21.0833 179.424 22.25 179.937 23.3C180.451 24.3267 181.151 25.1433 182.037 25.75C182.947 26.3567 183.974 26.66 185.117 26.66Z" fill="white"/>
<g clip-path="url(#clip0_14702_11)">
<path d="M6.09999 16C3.89999 17.3 2.39999 19.7 2.39999 22.3C2.39999 26.3 5.69999 29.6 9.69999 29.6C12.4 29.6 14.8 28.1 16.1 25.8C17.4 28.1 19.8 29.6 22.5 29.6C26.5 29.6 29.8 26.3 29.8 22.3C29.8 19.6 28.4 17.2 26.1 16C28.3 14.7 29.8 12.3 29.8 9.70002C29.8 5.70002 26.5 2.40002 22.5 2.40002C19.8 2.40002 17.4 3.90002 16.1 6.20002C14.8 3.90002 12.4 2.40002 9.69999 2.40002C5.69999 2.40002 2.39999 5.70002 2.39999 9.70002C2.39999 12.3 3.79999 14.7 6.09999 16Z" stroke="#3DB370" stroke-width="3"/>
</g>
<defs>
<clipPath id="clip0_14702_11">
<rect width="32" height="32" fill="white"/>
</clipPath>
</defs>
</svg>
